<svg
  width="343"
  height="500"
  viewBox="0 0 343 500"
  xmlns="http://www.w3.org/2000/svg"
  xmlns:xlink="http://www.w3.org/1999/xlink"
>

  <!-- DEFINITIONS -->
  <defs>
    <pattern
      id="pattern0"
      patternUnits="userSpaceOnUse"
      width="343"
      height="430"
    >
      <image
        x="0"
        y="60"
        width="343"
        height="430"
        xlink:href="hero-avatar.png"
        preserveAspectRatio="xMidYMid slice"
      />
    </pattern>
  </defs>

  <!-- BACKGROUND -->
  <rect
    width="343"
    height="500"
    rx="171.5"
    fill="#a4dd5a"
  />

  <!-- IMAGE AREA -->
  <rect
    y="70"
    width="200"
    height="300"
    rx="171.5"
    fill="url(#pattern0)"
  />

  <!-- HERO VECTOR PATH -->
  <g transform="translate(20,40) scale(0.8)">
    <path
       style="fill:#000000"
       d="m 44.394957,281.33572 c -0.09214,-0.0921 -0.09935,-0.52413 -0.01603,-0.96 l 0.151492,-0.79248 h 12.47584 12.47585 l -0.97737,-1.11315 c -0.53755,-0.61224 -1.06812,-1.59696 -1.17905,-2.18827 -0.27297,-1.45505 0.53581,-3.29211 1.7548,-3.98583 0.745,-0.42398 0.97174,-0.77844 0.9733,-1.52154 0.003,-1.35836 0.73668,-2.25544 2.32148,-2.83788 0.7483,-0.27501 5.60854,-1.73746 10.80054,-3.24988 5.192,-1.51243 10.412,-3.03352 11.6,-3.38021 l 2.16,-0.63034 v -8.88245 c 0,-9.21747 0.0603,-9.65045 1.344,-9.65045 0.54303,0 0.576,-0.60444 0.576,-10.56 v -10.56 l -1.84,-0.0509 c -5.93471,-0.1643 -5.54762,-0.21441 -7.67258,0.99335 -1.10082,0.62568 -2.00283,1.30302 -2.00446,1.5052 -0.004,0.5108 -5.52082,3.31239 -6.52253,3.31239 -0.95536,0 -1.61616,-0.98822 -1.30866,-1.95708 0.23776,-0.7491 5.56022,-3.48292 6.7809,-3.48292 0.87614,0 2.35623,-0.69788 3.84733,-1.81406 0.92837,-0.69494 1.04,-0.94849 1.04,-2.36222 v -1.58375 l -9.36,-0.002 c -5.148,-0.001 -10.20774,-0.14068 -11.24386,-0.31036 -4.25821,-0.69734 -8.08906,-3.44597 -9.73508,-6.98491 -1.36049,-2.92505 -1.34635,-5.83615 0.057,-11.7492 1.61839,-6.81887 1.68226,-8.06287 0.69794,-13.59367 -1.88716,-10.6038 -4.01604,-23.71263 -4.01604,-24.72929 0,-1.0557 0.35237,-1.38794 2.49708,-2.35447 0.0534,-0.0241 -0.12026,-1.17606 -0.3859,-2.56 -1.62124,-8.44612 -3.077,-16.52853 -3.26398,-18.12166 -0.25054,-2.13471 0.16252,-2.84374 2.01235,-3.45424 2.71603,-0.89637 5.07465,0.7716 6.1488,4.34832 0.72706,2.42095 4.90586,21.43251 7.26931,33.07185 1.20354,5.9271 1.44508,7.6787 1.33241,9.6623 -0.29894,5.26308 -3.31856,8.04315 -6.57781,6.05599 -0.57625,-0.35134 -1.08555,-0.6388 -1.13178,-0.6388 -0.0462,0 0.009,0.9 0.12347,2 0.28903,2.78558 -0.13185,6.43247 -1.28242,11.11197 -1.45787,5.9293 -1.27977,8.37797 0.80848,11.11581 0.8298,1.08793 3.74541,2.96383 4.61488,2.96921 0.29314,0.002 0.70685,-0.62193 1.04618,-1.57735 0.68663,-1.93325 2.56723,-3.64727 4.54936,-4.14637 0.77163,-0.1943 3.73753,-0.35327 6.59088,-0.35327 h 5.18791 l -1.9032,-1.2301 c -3.62712,-2.34432 -5.51595,-5.74226 -6.83166,-12.2899 -0.31731,-1.57913 -0.47087,-1.84 -1.08305,-1.84 -1.46774,0 -1.48174,-0.11693 -1.47367,-12.304 0.0115,-17.32671 0.46214,-23.88798 2.42745,-35.34108 1.97509,-11.5101 6.25678,-24.90874 10.01773,-31.34838 2.83112,-4.84756 8.75599,-11.118573 13.627181,-14.423313 1.408,-0.95523 3.10041,-2.21523 3.76092,-2.8 1.25477,-1.11091 1.82149,-1.26642 2.76834,-0.75968 0.45542,0.24373 0.8509,0.007 2.00679,-1.2 2.8666,-2.99396 2.67503,-2.23271 2.76257,-10.97803 0.10689,-10.67842 0.38435,-13.07875 1.85005,-16.00499 1.26904,-2.53364 4.39649,-4.76053 6.68568,-4.76053 0.30806,0 1.41057,-0.78738 2.45002,-1.74973 2.12185,-1.964456 4.06019,-2.730271 6.91054,-2.730271 3.30846,0 6.00206,0.893221 12.06563,4.001061 6.77477,3.47237 8.21547,4.00756 11.02174,4.09434 l 2.08922,0.0646 0.27229,1.28 c 0.83495,3.92497 -1.73501,8.424 -5.3978,9.44952 l -1.40599,0.39365 v 1.57524 c 0,2.16088 -0.86661,5.83576 -1.85841,7.8806 -0.81393,1.67813 -0.81972,1.74297 -0.47091,5.2735 0.43906,4.44387 0.29645,4.82575 -1.69082,4.52774 -0.90793,-0.13615 -1.41986,-0.0926 -1.41986,0.12065 0,0.59044 -5.12522,8.016753 -6.01663,8.717933 -1.17512,0.92435 -2.61876,0.65633 -6.08926,-1.13051 -1.50646,-0.77563 -2.91192,-1.3108 -3.12325,-1.18927 -0.57001,0.32777 -4.61086,4.7547 -4.61086,5.05138 0,0.14034 0.36778,0.78588 0.81729,1.43452 0.71436,1.03083 0.87484,1.77859 1.27422,5.9372 0.25131,2.61682 0.61853,5.32861 0.81604,6.02621 0.3709,1.31003 11.42406,23.58693 12.18469,24.55742 0.3596,0.45882 2.21222,0.7015 11.62776,1.52316 17.67312,1.54226 18.1765,1.5992 18.75341,2.12129 0.46952,0.42491 0.87828,0.40447 3.68732,-0.18436 1.7376,-0.36423 4.50987,-0.99484 6.16062,-1.40135 l 3.00134,-0.7391 4.03865,1.398 c 2.22126,0.7689 4.39866,1.6583 4.83866,1.97645 0.88015,0.63639 4.52113,5.12381 5.29262,6.52302 0.36601,0.66382 0.4022,1.04097 0.14583,1.52 -0.33459,0.62517 -0.2331,0.63711 5.41903,0.63711 5.15894,0 5.79107,-0.0584 6.05778,-0.56 0.27433,-0.5159 4.90437,-11.94934 13.96288,-34.48 4.53824,-11.28768 4.26429,-10.72 5.17322,-10.72 1.1416,0 2.13006,1.15232 1.87165,2.18192 -0.11685,0.46556 -2.23893,5.88908 -4.71574,12.05227 -2.4768,6.1632 -6.54651,16.31185 -9.04379,22.55256 -3.63123,9.07446 -4.71575,11.47757 -5.41555,12 -0.86146,0.6431 -1.2562,0.65418 -25.41149,0.71358 -22.32874,0.0549 -24.78118,0.11249 -27.25644,0.64 -2.67327,0.56971 -1.74687,0.58242 53.92,0.73967 l 56.63999,0.16 0.0915,3.11483 0.0915,3.11484 -8.73153,0.0852 -8.73153,0.0852 -0.0713,47.84 c -0.0392,26.31199 0.0137,51.25999 0.11759,55.43999 l 0.18885,7.6 h 14.34084 c 14.03832,0 14.34511,0.0134 14.54306,0.63714 0.11123,0.35043 0.11243,0.78243 0.003,0.96 -0.20653,0.33418 -235.408789,0.48917 -235.742615,0.15534 z m 53.708722,-2.66251 c -1.68934,-1.76329 -1.78047,-4.54678 -0.19582,-5.98087 0.5392,-0.48798 0.62795,-0.99395 0.62795,-3.58026 0,-2.74045 -0.0513,-2.99569 -0.56869,-2.83147 -0.31278,0.0993 -4.09278,0.96284 -8.4,1.91903 -10.61436,2.35636 -14.80194,3.36408 -15.32634,3.68817 -0.35999,0.22249 -0.3187,0.42788 0.22493,1.119 1.36268,1.73236 1.16151,4.32319 -0.43306,5.57748 -0.42726,0.33609 -0.77684,0.69834 -0.77684,0.80501 0,0.10667 5.78694,0.19394 12.85987,0.19394 h 12.85987 z m 29.540191,0.03 c -1.24802,-1.11834 -1.64898,-2.76971 -1.07669,-4.43439 0.23392,-0.68043 0.67204,-1.41756 0.97361,-1.63807 0.30156,-0.22051 0.46602,-0.4832 0.36546,-0.58376 -0.24197,-0.24197 -9.02893,-2.37159 -17.21044,-4.17114 -3.608,-0.79359 -6.812,-1.51779 -7.12,-1.60933 -0.50326,-0.14957 -0.56,0.11642 -0.56,2.62492 0,2.46087 0.0918,2.91174 0.77546,3.80804 1.49909,1.96542 1.36026,4.18406 -0.37569,6.00373 l -0.83951,0.88 h 13.02492 13.02491 z m 15.38154,0.30322 c -0.99325,-0.68264 -3.13625,-2.33378 -7.66173,-5.90322 -1.95248,-1.54 -3.62149,-2.8 -3.70892,-2.8 -0.51535,0 -0.0281,1.29211 0.65632,1.74059 1.08124,0.70845 2.06205,2.36273 2.06353,3.48045 0.001,1.0873 -0.44211,2.00423 -1.53777,3.17896 l -0.82077,0.88 5.89987,-0.0168 c 5.64913,-0.0161 5.86628,-0.0399 5.10947,-0.56 z m 27.1904,-2.08445 c 0,-2.89905 0.394,-5.59266 1.17092,-8.00509 0.36347,-1.12861 0.43791,-2.10741 0.27556,-3.6234 l -0.22244,-2.07708 -1.18144,0.19961 -1.18145,0.1996 -2.78438,-8.8962 c -1.53141,-4.89291 -3.64298,-11.82802 -4.69239,-15.41136 -1.04942,-3.58333 -1.97212,-6.57924 -2.05045,-6.65758 -0.11881,-0.11881 -6.2457,9.9241 -11.35509,18.61273 -0.72448,1.232 -1.44657,2.4329 -1.60463,2.66865 -0.23358,0.34839 -0.53606,0.30179 -1.61537,-0.24883 l -1.32797,-0.67748 -0.28281,0.72883 c -0.15554,0.40086 -0.57526,1.46421 -0.9327,2.363 -0.54717,1.37588 -0.58147,1.70463 -0.21697,2.08 0.23811,0.24521 1.51916,3.18183 2.84678,6.52583 1.58533,3.99311 2.68493,6.31575 3.2036,6.76682 0.43437,0.37775 1.9263,1.06532 3.31541,1.52793 3.48921,1.16202 5.19582,3.01652 5.19582,5.64609 v 0.93916 h 6.72 6.72 z m 75.35999,-52.85877 v -55.35996 l -51.26053,-0.081 -51.26054,-0.081 -0.20452,-1.36385 c -0.11249,-0.75011 -0.17619,-1.50567 -0.14157,-1.67902 0.2682,-1.34272 0.15205,-1.36756 -3.45283,-0.73845 -1.892,0.33018 -4.88,0.68807 -6.64,0.79531 -2.84705,0.17348 -3.38027,0.11741 -4.83437,-0.50831 -2.11347,-0.90945 -3.17817,-2.07222 -7.05397,-7.70373 -1.75637,-2.552 -6.33865,-9.20856 -10.18284,-14.79235 -3.84419,-5.5838 -7.41045,-10.62379 -7.92502,-11.2 l -0.93559,-1.04765 0.63017,1.12 c 3.46903,6.16553 11.89828,19.64237 15.63779,25.00198 0.93711,1.34309 1.70383,2.74396 1.70383,3.11305 0,0.36908 -0.29708,2.49884 -0.66018,4.73279 l -0.66017,4.06174 1.01777,1.94162 c 0.91224,1.7403 0.9978,2.1328 0.82508,3.78522 -0.10598,1.01398 -0.0869,1.8436 0.0425,1.8436 0.32455,0 17.33679,2.65469 23.59502,3.6819 13.72695,2.25313 25.2395,4.83709 28.17216,6.32318 1.94043,0.98329 4.7659,3.90226 5.59791,5.78315 1.65698,3.74589 1.56866,7.97315 -0.26614,12.73805 l -0.91234,2.36931 0.91468,5.1122 c 2.37186,13.25654 6.54756,35.23484 7.81098,41.1122 1.13012,5.25725 1.15625,6.20694 0.17457,6.34595 -0.82189,0.11639 -0.82247,0.1033 0.15291,3.49997 0.40617,1.41447 0.65707,1.75817 1.55836,2.13476 0.59084,0.24686 2.02081,1.17434 3.17772,2.06107 4.60076,3.52629 7.06615,4.66855 13.49793,6.25388 1.95732,0.48244 3.98966,1.13922 4.51632,1.4595 1.0143,0.61684 2.32494,2.933 2.32494,4.10864 v 0.7017 l 17.51999,-0.0827 17.52,-0.0827 z m -117.62666,43.244 c -0.0733,-0.0638 -1.90527,-1.5847 -4.07096,-3.37977 -2.1657,-1.79508 -4.0137,-3.46199 -4.10666,-3.70424 -0.21391,-0.55744 4.18801,-6.39945 6.02385,-7.99454 0.75924,-0.65968 1.77567,-1.37105 2.25873,-1.58081 0.48306,-0.20977 1.57986,-1.37359 2.43734,-2.58627 1.52776,-2.16064 1.54632,-2.21517 0.92475,-2.71849 -0.61909,-0.50131 -0.4296,-0.92571 7.90217,-17.6978 4.69505,-9.45129 9.03074,-17.8317 9.63484,-18.62312 l 1.09838,-1.43895 -5.03789,10e-4 c -2.77083,8e-4 -6.62802,0.0931 -8.57153,0.2051 l -3.53365,0.20364 0.73365,1.44913 c 0.85353,1.68593 0.92657,2.91938 0.25033,4.22708 -0.885,1.7114 -1.08127,1.74113 -12.63668,1.9136 l -10.72,0.16 -0.16,2.55999 -0.16,2.56 -3.6,0.0905 -3.6,0.0905 -0.0612,3.26952 c -0.0337,1.79823 -0.0785,6.50951 -0.0997,10.46951 l -0.0385,7.2 0.81968,0.16303 0.81969,0.16302 0.0848,9.14539 0.0848,9.14538 3.11518,0.90362 c 1.71335,0.49699 6.85918,2.02577 11.43518,3.39729 7.79371,2.33592 9.10625,2.69592 8.77333,2.40627 z m 62.74667,-110.26048 c 0,-0.3868 -3.00917,-2.07529 -4.61001,-2.58675 -1.19557,-0.38198 -1.37459,-0.33835 -4.11124,1.00195 l -2.86124,1.40132 5.71124,0.17121 c 3.14119,0.0942 5.74725,0.20217 5.79125,0.24 0.044,0.0378 0.08,-0.0647 0.08,-0.22773 z m -22.4,-7.32119 c 0,-0.5419 -0.99666,-0.6122 -16.07806,-1.13406 -8.84293,-0.30599 -16.16305,-0.65802 -16.26693,-0.78229 -0.10387,-0.12427 -1.14156,-2.31394 -2.30596,-4.86594 -1.1644,-2.552 -3.79599,-8.24 -5.84799,-12.64 -2.05199,-4.4 -4.73758,-10.16 -5.96798,-12.8 -1.2304,-2.64 -2.86949,-5.75357 -3.64243,-6.91903 -2.2301,-3.36266 -5.74223,-5.72109 -9.25065,-6.21192 -1.92109,-0.26876 -1.65652,0.13142 0.64,0.96804 2.27492,0.82876 4.64218,2.40988 6.02255,4.02253 1.52589,1.78265 3.39905,5.46915 10.07098,19.82038 2.98654,6.424 6.32684,13.57406 7.42289,15.88903 2.31894,4.89783 1.43116,4.43615 8.80358,4.57812 2.464,0.0474 7.504,0.1895 11.2,0.31568 3.696,0.12617 8.628,0.25365 10.96,0.28328 3.89417,0.0495 4.24,0.007 4.24,-0.52382 z m 61.50091,-10.54229 c 0.0912,-0.47375 0.47614,-0.56 2.49908,-0.56 2.02295,0 2.40785,0.0863 2.49909,0.56 0.0956,0.49633 -0.18855,0.56 -2.49909,0.56 -2.31053,0 -2.59466,-0.0637 -2.49908,-0.56 z m -54.26668,-3.78618 c -0.31677,-0.8255 -0.22108,-4.28573 0.13702,-4.95486 0.31238,-0.58367 0.73659,-0.61868 7.44,-0.61406 3.90981,0.003 7.30973,0.13216 7.55538,0.2877 0.24564,0.15554 0.35816,0.51334 0.25004,0.7951 -0.17183,0.44778 -1.0643,0.5123 -7.08663,0.5123 h -6.89004 v 1.73382 c 0,1.99748 -0.21811,2.74618 -0.8,2.74618 -0.22634,0 -0.49894,-0.22778 -0.60577,-0.50618 z m 11.5391,-0.0272 c -0.11733,-0.11733 -0.21333,-0.40533 -0.21333,-0.64 0,-0.34574 1.76,-0.42666 9.28,-0.42666 9.06666,0 9.28,0.0147 9.28,0.64 0,0.62494 -0.21334,0.64 -9.06667,0.64 -4.98667,0 -9.16267,-0.096 -9.28,-0.21334 z m 57.49117,-1.89588 c -0.12623,-0.32896 0.21574,-0.92036 0.96602,-1.67064 l 1.16141,-1.16141 -1.1527,-1.18048 c -1.0843,-1.11043 -1.21852,-1.87825 -0.32832,-1.87825 0.21623,0 1.095,0.71257 1.95283,1.58349 l 1.55968,1.58349 -1.73171,1.61091 c -1.89198,1.75999 -2.13596,1.87185 -2.42721,1.11289 z m -13.01117,-2.26412 c -0.11734,-0.11733 -0.21334,-0.40533 -0.21334,-0.64 0,-0.33571 0.97778,-0.42666 4.58667,-0.42666 2.52267,0 4.67275,0.0861 4.77795,0.19128 0.10521,0.10521 0.1138,0.39321 0.0191,0.64 -0.13615,0.3548 -1.09154,0.44872 -4.56462,0.44872 -2.41583,0 -4.48843,-0.096 -4.60576,-0.21334 z M 169.041,126.79672 c -1.24486,-0.5415 -1.70519,-1.34753 -1.70519,-2.98575 0,-2.43867 2.34705,-3.89008 4.45945,-2.75771 2.37885,1.27519 2.30809,4.72792 -0.11766,5.74146 -1.34197,0.56072 -1.35216,0.56072 -2.6366,0.002 z m 2.71081,-1.51747 c 0.50592,-0.50593 0.48979,-1.909 -0.0301,-2.62003 -0.29068,-0.39753 -0.7431,-0.53499 -1.51777,-0.46116 -2.41503,0.23017 -2.30741,3.46519 0.11527,3.46519 0.57675,0 1.22143,-0.1728 1.43263,-0.384 z m 6.58878,1.20763 c -0.0998,-0.26014 -0.0882,-0.62388 0.0258,-0.80831 0.22397,-0.3624 28.49331,-0.49796 29.42329,-0.14109 0.62734,0.24073 0.6613,0.95777 0.0564,1.1899 -0.24739,0.0949 -6.94648,0.18608 -14.88685,0.20255 -12.46146,0.0258 -14.46188,-0.0348 -14.61855,-0.44305 z m 55.03682,-1.92831 c -0.0981,-0.25557 -0.0924,-0.60376 0.0127,-0.77376 0.23547,-0.38101 22.24406,-0.46994 22.83652,-0.0923 0.22639,0.14431 0.31877,0.50182 0.20577,0.7963 -0.18623,0.48531 -1.24681,0.53442 -11.54089,0.53442 -9.61493,0 -11.36287,-0.0705 -11.51411,-0.46468 z m -55.10069,-2.65532 c 0.10043,-0.52145 0.93328,-0.56 12.09909,-0.56 11.1658,0 11.99865,0.0386 12.09908,0.56 0.10119,0.52543 -0.64569,0.56 -12.09908,0.56 -11.4534,0 -12.20027,-0.0346 -12.09909,-0.56 z m 24.89909,-6.67501 c -3.96,-3.79853 -8.388,-8.00315 -9.84,-9.3436 -2.47542,-2.28525 -3.25992,-3.58139 -2.16768,-3.58139 0.25977,0 3.96777,3.35119 8.24,7.44709 4.27222,4.0959 8.73968,8.36673 9.92768,9.49072 2.16924,2.05237 2.64047,2.90587 1.6,2.89789 -0.308,-0.002 -3.8,-3.11218 -7.76,-6.91071 z m 31.74009,5.07929 c 0.10123,-0.52565 0.84235,-0.56428 10.82429,-0.56428 9.31166,0 10.71561,0.0629 10.71561,0.48 0,0.41554 -1.45349,0.49132 -10.82428,0.56428 -10.19343,0.0794 -10.81796,0.0514 -10.71562,-0.48 z m -51.50009,-2.21621 c -0.56312,-0.22723 -0.49777,-0.96208 0.10617,-1.19384 0.27839,-0.10683 3.50299,-0.19423 7.16576,-0.19423 5.7924,0 6.68502,0.0663 6.85487,0.50887 0.1074,0.27989 0.11431,0.63989 0.0154,0.8 -0.1842,0.29805 -13.41616,0.37214 -14.14215,0.0792 z m -22.33786,-1.41696 c -0.11859,-0.19188 0.33365,-0.91138 1.00497,-1.59888 l 1.22059,-1.25 -1.02385,-1.05635 c -1.04644,-1.07966 -1.35044,-2.14588 -0.61182,-2.14588 0.52774,0 3.54049,3.0446 3.38508,3.42087 -0.20344,0.49255 -3.05301,2.97913 -3.41401,2.97913 -0.18993,0 -0.44236,-0.157 -0.56096,-0.34889 z m 45.13096,-8.65211 c -3.69221,-3.90487 -8.21394,-8.697093 -10.04829,-10.649383 -1.83436,-1.95229 -5.83127,-6.1771 -8.88203,-9.38846 l -5.54683,-5.83884 0.082,-24.08116 c 0.0721,-21.155687 0.14034,-24.081161 0.56203,-24.081161 0.42094,0 0.49968,2.937035 0.64,23.873311 l 0.16,23.87331 6.72,7.01015 c 12.01218,12.530853 24,25.424783 24,25.814083 0,1.27282 -1.5634,-0.0557 -7.6869,-6.53185 z m -31.13219,5.241 c 0.0995,-0.51652 0.76566,-0.56 8.57909,-0.56 7.81342,0 8.47961,0.0435 8.57908,0.56 0.10057,0.52223 -0.47807,0.56 -8.57908,0.56 -8.10102,0 -8.67966,-0.0378 -8.57909,-0.56 z m 74.96026,-0.49367 c -0.0922,-0.24034 -0.12572,-1.72159 -0.0744,-3.29166 l 0.0933,-2.85467 2.91139,-0.0914 c 2.22596,-0.0699 3.00121,0.0169 3.29292,0.36836 0.24926,0.30034 0.34932,1.44143 0.28861,3.29136 l -0.0929,2.83165 -3.12557,0.0917 c -2.41084,0.0707 -3.16391,-0.008 -3.29325,-0.34532 z m 5.13882,-2.94633 v -1.92 l -2,-0.0953 -2,-0.0953 v 2.11054 2.11054 l 2,-0.0953 2,-0.0953 z m -16.3703,-0.66121 c -1.93907,-1.93908 0.58726,-5.11317 3.05429,-3.83742 0.50515,0.26123 1.00791,0.70806 1.11724,0.99296 1.06282,2.76968 -2.09386,4.92213 -4.17153,2.84446 z m 2.7063,-0.84279 c 0.96999,-0.96999 -0.34962,-2.70781 -1.39645,-1.83903 -0.47301,0.39257 -0.62475,1.63115 -0.24621,2.00969 0.33962,0.33963 1.22429,0.24772 1.64266,-0.17066 z m -66.91759,1.1 c -3.67736,-0.0856 -4.09064,-0.15236 -3.99579,-0.64572 0.0958,-0.49817 0.80236,-0.55883 7.46159,-0.64057 7.73978,-0.095 8.7958,-0.0107 8.7958,0.70215 0,0.84704 -0.31615,0.86211 -12.2616,0.58414 z m 30.04307,-9.430833 c -3.10177,-3.56116 -5.59951,-6.68123 -5.55053,-6.93349 0.20978,-1.08043 0.98434,-0.4802 4.05173,3.13977 1.78757,2.1096 3.42725,4.026533 3.64373,4.259833 3.8377,4.13603 5.06693,6.00872 3.94413,6.00872 -0.24721,0 -2.98728,-2.91368 -6.08906,-6.474833 z m -44.34147,4.559453 c 0,-0.63233 0.18955,-0.64462 9.94346,-0.64462 9.29768,0 9.93647,0.0364 9.83572,0.56 -0.0994,0.51663 -0.86941,0.56655 -9.94346,0.64462 -9.67392,0.0832 -9.83572,0.074 -9.83572,-0.56 z m 55.43071,-3.60462 0.0893,-4.240003 8.88809,-0.0851 c 7.80605,-0.0747 8.9114,-0.0243 9.07953,0.4138 0.10529,0.27438 0.0894,0.60067 -0.0353,0.72508 -0.12473,0.12441 -3.92252,0.2262 -8.43953,0.2262 h -8.2128 l -0.0905,3.600003 c -0.0843,3.35421 -0.13409,3.6 -0.72928,3.6 -0.61076,0 -0.63489,-0.18616 -0.54952,-4.24 z m -29.45543,-2.012673 c -2.81345,-2.33636 -8.05528,-7.38535 -8.05528,-7.75894 0,-0.87258 0.78705,-0.65651 2.1742,0.59687 3.93932,3.55946 7.74778,7.39265 7.59329,7.64261 -0.0943,0.15261 0.002,0.3354 0.21475,0.40621 0.23117,0.077 0.26075,0.206303 0.0737,0.321913 -0.17191,0.10625 -1.07219,-0.437653 -2.00064,-1.208663 z m 17.15211,-9.15221 c -0.18736,-0.11579 -0.25219,-0.44106 -0.14407,-0.72283 0.2895,-0.7544 10.05715,-0.77187 10.34625,-0.0185 0.10422,0.27159 0.1357,0.54455 0.07,0.60656 -0.22929,0.2163 -9.93421,0.34362 -10.27214,0.13477 z m 14.85287,0.14451 c -1.08293,-0.1086 -1.35735,-0.25466 -1.2757,-0.679 0.095,-0.49355 1.09677,-0.54795 11.50396,-0.62464 9.82432,-0.0724 11.42506,-0.0185 11.58173,0.38976 0.1,0.26056 0.008,0.58636 -0.20423,0.724 -0.40565,0.26297 -19.22739,0.42838 -21.60576,0.18988 z m -49.66026,-3.39596 c 0,-0.74812 3.10349,-6.46141 3.55758,-6.54925 0.27559,-0.0533 1.07591,1.15578 2.12242,3.20644 0.924,1.81062 1.68,3.39713 1.68,3.52558 0,0.12846 -1.656,0.23356 -3.68,0.23356 -2.80765,0 -3.68,-0.0987 -3.68,-0.41633 z m 4.60689,-2.54367 c -0.46414,-0.924 -0.88888,-1.73032 -0.94388,-1.79182 -0.10238,-0.11449 -1.74301,2.99279 -1.74301,3.30118 0,0.0938 0.79442,0.17064 1.76539,0.17064 h 1.76539 z m 43.9291,1.78933 c -0.1188,-0.1188 -0.21599,-0.4092 -0.21599,-0.64533 0,-0.355 3.1164,-0.41502 17.99999,-0.34667 15.74993,0.0723 18,0.14267 18,0.56267 0,0.41991 -2.22607,0.49034 -17.784,0.56266 -9.7812,0.0455 -17.8812,-0.0145 -18,-0.13333 z m -30.29599,-6.5328 c 0,-1.98302 0.0694,-2.25023 0.56,-2.15669 0.45558,0.0869 0.57764,0.50891 0.65462,2.26347 0.0873,1.99025 0.0441,2.15669 -0.56,2.15669 -0.5978,0 -0.65462,-0.19648 -0.65462,-2.26347 z m 16.70091,1.38347 c 0.10011,-0.51983 0.86471,-0.56 10.65909,-0.56 9.79437,0 10.55897,0.0402 10.65908,0.56 0.10098,0.52437 -0.57712,0.56 -10.65908,0.56 -10.08197,0 -10.76007,-0.0356 -10.65909,-0.56 z m -0.0609,-4.24 c 0,-0.6149 0.21333,-0.64 5.44,-0.64 5.22666,0 5.44,0.0251 5.44,0.64 0,0.6149 -0.21334,0.64 -5.44,0.64 -5.22667,0 -5.44,-0.0251 -5.44,-0.64 z m 16,0 c 0,-0.63271 0.21333,-0.64 18.71999,-0.64 18.50667,0 18.72,0.007 18.72,0.64 0,0.6327 -0.21333,0.64 -18.72,0.64 -18.50666,0 -18.71999,-0.007 -18.71999,-0.64 z m -32.64,-8.64 c 0,-6.50667 0.0203,-6.72 0.64,-6.72 0.61968,0 0.64,0.21333 0.64,6.72 0,6.50666 -0.0203,6.72 -0.64,6.72 -0.61969,0 -0.64,-0.21334 -0.64,-6.72 z m 16.64,4.8 c 0,-0.63391 0.21333,-0.64 22.39999,-0.64 22.18667,0 22.4,0.006 22.4,0.64 0,0.6339 -0.21333,0.64 -22.4,0.64 -22.18666,0 -22.39999,-0.006 -22.39999,-0.64 z m 49.0618,-2.62394 c -0.46484,-0.59837 2.41264,-7.72771 3.17852,-7.87521 0.84039,-0.16184 0.70668,0.57668 -0.76032,4.19943 -1.48465,3.66633 -1.91608,4.32213 -2.4182,3.67578 z m -49.05017,-1.04204 c -0.83984,-1.01195 -0.0285,-1.13402 7.53729,-1.13402 6.59184,0 7.53522,0.0627 7.70775,0.51229 0.10812,0.28177 -0.004,0.63956 -0.25005,0.7951 -0.24564,0.15555 -3.63299,0.28501 -7.52744,0.28771 -5.81334,0.004 -7.15005,-0.0785 -7.46755,-0.46108 z m 45.98819,-1.19777 c -0.8359,-0.70557 -1.51983,-1.53753 -1.51983,-1.8488 0,-0.31127 0.65638,-1.17096 1.45861,-1.91044 1.20711,-1.11267 1.5407,-1.27636 1.93474,-0.94934 0.40971,0.34003 0.30893,0.56638 -0.72246,1.62263 l -1.19859,1.22747 1.02385,1.05635 c 1.00949,1.04153 1.25405,1.64584 0.78368,1.93654 -0.13209,0.0816 -0.92409,-0.42885 -1.76,-1.13441 z m 7.76017,0.63898 c 0,-0.21162 0.46025,-0.85962 1.02278,-1.44 l 1.02277,-1.05523 -1.02277,-1.05524 c -1.07471,-1.10881 -1.31026,-1.82476 -0.60038,-1.82476 0.66544,0 3.0976,2.22989 3.0976,2.83999 0,0.30257 -0.54607,1.08335 -1.21349,1.73506 -1.19542,1.1673 -2.30651,1.55276 -2.30651,0.80018 z m -65.77723,-3.48311 c -0.11825,-0.19134 -0.0817,-0.48119 0.0812,-0.64411 0.17382,-0.17382 5.0465,-0.26147 11.79182,-0.21212 10.65518,0.078 11.50347,0.12505 11.60336,0.64411 0.10104,0.52507 -0.62093,0.56 -11.57682,0.56 -8.06887,0 -11.7511,-0.10765 -11.89958,-0.34788 z m 0.17723,-5.08911 c 0,-0.63537 0.18853,-0.64301 15.86346,-0.64301 14.93579,0 15.85716,0.0327 15.75566,0.56 -0.10067,0.52294 -1.15048,0.56549 -15.86346,0.64301 -15.5945,0.0822 -15.75566,0.0764 -15.75566,-0.56 z m 35.41628,0.18827 c -0.28475,-0.74205 0.0756,-0.83128 3.35705,-0.83128 2.93333,0 3.14666,0.0434 3.14666,0.64 0,0.59687 -0.21333,0.64 -3.16576,0.64 -2.42072,0 -3.20629,-0.1056 -3.33795,-0.44872 z m -40.21628,-5.308294 c 0,-0.635423 0.18851,-0.642987 16.02346,-0.642987 15.08817,0 16.01717,0.03269 15.91566,0.56 -0.10069,0.523045 -1.15809,0.565476 -16.02346,0.642987 -15.75451,0.08215 -15.91566,0.07648 -15.91566,-0.56 z m -0.16,-6.722987 c -0.46784,-0.75697 0.37488,-0.96 3.98464,-0.96 2.95358,0 3.82477,0.09874 3.95907,0.448715 0.0947,0.246793 0.0861,0.534793 -0.0191,0.64 -0.33142,0.33142 -7.71435,0.211503 -7.92461,-0.128715 z"
       id="path1" />
  </g>

</svg>
